# xmcd CD database file
#
# Track frame offsets:
#	150
#	21928
#	38363
#	56035
#	70880
#	102708
#	117440
#	142888
#	159175
#	179430
#
# Disc length: 2718 seconds
#
# Revision: 0
# Processed by: cddbd v1.4PL0 Copyright (c) Steve Scherf et al.
# Submitted via: CDex 1.50Beta7
#
DISCID=840a9c0a
DTITLE=Tim Maia - Interpreta clássicos da Bossa Nova
DYEAR=1900
DGENRE=Jazz
TTITLE0=Folha de Papel
TTITLE1=Eu e a Brisa
TTITLE2=A Rã
TTITLE3=A Rã II
TTITLE4=Minha Namorada
TTITLE5=Useless Landscape
TTITLE6=Wave
TTITLE7=Girl from Ipanema
TTITLE8=Samba da Pergunta
TTITLE9=Meditação
EXTD=
EXTT0=
EXTT1=
EXTT2=
EXTT3=
EXTT4=
EXTT5=
EXTT6=
EXTT7=
EXTT8=
EXTT9=
PLAYORDER=
